HIERARCHY
ROOT Hips
{
	OFFSET 0.000000 0.000000 0.000000
	CHANNELS 6 Xposition Yposition Zposition Zrotation Yrotation Xrotation 
	JOINT LHipJoint
	{
		OFFSET 0.000000 0.000000 0.000000
		CHANNELS 3 Zrotation Yrotation Xrotation
		JOINT LeftUpLeg
		{
			OFFSET 1.363060 -1.794630 0.839290
			CHANNELS 3 Zrotation Yrotation Xrotation
			JOINT LeftLeg
			{
				OFFSET 2.448110 -6.726130 0.000000
				CHANNELS 3 Zrotation Yrotation Xrotation
				JOINT LeftFoot
				{
					OFFSET 2.562200 -7.039590 0.000000
					CHANNELS 3 Zrotation Yrotation Xrotation
					JOINT LeftToeBase
					{
						OFFSET 0.157640 -0.433110 2.322550
						CHANNELS 3 Zrotation Yrotation Xrotation
						End Site
						{
							OFFSET 0.000000 0.000000 0.000000
						}
					}
				}
			}
		}
	}
	JOINT RHipJoint
	{
		OFFSET 0.000000 0.000000 0.000000
		CHANNELS 3 Zrotation Yrotation Xrotation
		JOINT RightUpLeg
		{
			OFFSET -1.305520 -1.794630 0.839290
			CHANNELS 3 Zrotation Yrotation Xrotation
			JOINT RightLeg
			{
				OFFSET -2.542530 -6.985550 0.000000
				CHANNELS 3 Zrotation Yrotation Xrotation
				JOINT RightFoot
				{
					OFFSET -2.568260 -7.056230 0.000000
					CHANNELS 3 Zrotation Yrotation Xrotation
					JOINT RightToeBase
					{
						OFFSET -0.164730 -0.452590 2.363150
						CHANNELS 3 Zrotation Yrotation Xrotation
						End Site
						{
							OFFSET 0.000000 0.000000 0.000000
						}
					}
				}
			}
		}
	}
	JOINT LowerBack
	{
		OFFSET 0.000000 0.000000 0.000000
		CHANNELS 3 Zrotation Yrotation Xrotation
		JOINT Spine
		{
			OFFSET 0.028270 2.035590 -0.193380
			CHANNELS 3 Zrotation Yrotation Xrotation
			JOINT Spine1
			{
				OFFSET 0.056720 2.048850 -0.042750
				CHANNELS 3 Zrotation Yrotation Xrotation
				JOINT Neck
				{
					OFFSET 0.000000 0.000000 0.000000
					CHANNELS 3 Zrotation Yrotation Xrotation
					JOINT Neck1
					{
						OFFSET -0.054170 1.746240 0.172020
						CHANNELS 3 Zrotation Yrotation Xrotation
						JOINT Head
						{
							OFFSET 0.104070 1.761360 -0.123970
							CHANNELS 3 Zrotation Yrotation Xrotation
							End Site
							{
								OFFSET 0.000000 0.000000 0.000000
							}
						}
					}
				}
				JOINT LeftShoulder
				{
					OFFSET 0.000000 0.000000 0.000000
					CHANNELS 3 Zrotation Yrotation Xrotation
					JOINT LeftArm
					{
						OFFSET 3.362410 1.200890 -0.311210
						CHANNELS 3 Zrotation Yrotation Xrotation
						JOINT LeftForeArm
						{
							OFFSET 4.983000 -0.000000 -0.000000
							CHANNELS 3 Zrotation Yrotation Xrotation
							JOINT LeftHand
							{
								OFFSET 3.483560 -0.000000 -0.000000
								CHANNELS 3 Zrotation Yrotation Xrotation
								JOINT LeftFingerBase
								{
									OFFSET 0.000000 0.000000 0.000000
									CHANNELS 3 Zrotation Yrotation Xrotation
									JOINT LeftHandIndex1
									{
										OFFSET 0.715260 -0.000000 -0.000000
										CHANNELS 3 Zrotation Yrotation Xrotation
										End Site
										{
											OFFSET 0.000000 0.000000 0.000000
										}
									}
								}
								JOINT LThumb
								{
									OFFSET 0.000000 0.000000 0.000000
									CHANNELS 3 Zrotation Yrotation Xrotation
									End Site
									{
										OFFSET 0.000000 0.000000 0.000000
									}
								}
							}
						}
					}
				}
				JOINT RightShoulder
				{
					OFFSET 0.000000 0.000000 0.000000
					CHANNELS 3 Zrotation Yrotation Xrotation
					JOINT RightArm
					{
						OFFSET -3.136600 1.374050 -0.404650
						CHANNELS 3 Zrotation Yrotation Xrotation
						JOINT RightForeArm
						{
							OFFSET -5.241900 -0.000000 -0.000000
							CHANNELS 3 Zrotation Yrotation Xrotation
							JOINT RightHand
							{
								OFFSET -3.444170 -0.000000 -0.000000
								CHANNELS 3 Zrotation Yrotation Xrotation
								JOINT RightFingerBase
								{
									OFFSET 0.000000 0.000000 0.000000
									CHANNELS 3 Zrotation Yrotation Xrotation
									JOINT RightHandIndex1
									{
										OFFSET -0.622530 -0.000000 -0.000000
										CHANNELS 3 Zrotation Yrotation Xrotation
										End Site
										{
											OFFSET 0.000000 0.000000 0.000000
										}
									}
								}
								JOINT RThumb
								{
									OFFSET 0.000000 0.000000 0.000000
									CHANNELS 3 Zrotation Yrotation Xrotation
									End Site
									{
										OFFSET 0.000000 0.000000 0.000000
									}
								}
							}
						}
					}
				}
			}
		}
	}
}
MOTION
Frames: 12
Frame Time: 0.033333
-1.780049 17.370987 5.228303 89.198969 -18.067652 -36.966201 -81.416663 -46.520422 43.160479 10.849869 10.758903 -50.529404 -76.311796 68.399055 -58.835235 12.871017 32.073941 0.629561 0.199686 -0.011469 -18.286006 37.548666 -4.288651 -103.321683 38.554306 -40.947584 -110.895537 105.165109 -55.584889 -114.343851 22.262938 -23.490072 -22.630302 0.974001 0.094007 -52.394431 -117.114565 62.284547 -40.924476 -177.386534 71.514174 -173.692530 -157.533052 69.780917 -162.940291 4.307919 -14.648677 2.492557 11.590471 -11.177285 15.272812 0.067267 -0.108814 0.100673 127.310795 65.033025 50.121303 99.317881 74.271220 68.138326 -27.651476 7.547497 -114.463069 -1.144580 10.930868 10.844741 -7.970679 -0.689488 -8.705294 -0.078567 -0.029636 0.014066 0.111374 0.015841 -0.033014 58.417165 71.851026 91.378164 46.505653 56.051322 145.434209 -19.497401 -36.084132 84.555839 -8.420645 5.523016 16.398392 8.521418 -15.781484 12.646033 -0.111127 0.134556 -0.063582 -0.056573 -0.051007 -0.095623 
-1.751761 17.826097 6.247111 88.078643 -17.858023 -36.630149 -82.038228 -47.120516 44.090776 10.573474 8.784062 -52.226455 -70.402396 70.411234 -69.058529 9.968034 30.076100 -1.595997 0.260455 0.027323 -21.743719 38.929939 -5.751618 -105.248185 34.412057 -35.441188 -109.365929 99.593940 -60.048232 -118.211989 29.319909 -32.607795 -14.939571 0.612228 0.030558 -57.989149 -119.814676 63.097920 -44.068840 -175.774709 71.764329 -173.111387 -154.768702 68.479423 -161.926453 6.448554 -16.609219 3.255039 10.361989 -13.442619 12.399341 0.128183 -0.047263 0.046873 129.002076 65.961843 55.993794 112.284558 73.663616 83.666230 -27.582472 5.361975 -109.995751 4.609490 14.783934 19.321692 -7.144347 -4.141779 -3.195633 -0.125286 -0.062204 0.098069 0.067621 0.118026 -0.041650 54.770426 70.644186 86.703265 36.770826 55.810656 137.735662 -29.658572 -34.635117 90.446796 -10.487215 9.043598 11.748741 8.032498 -17.919412 27.223269 -0.097684 0.050182 -0.063068 -0.115538 -0.128998 -0.076027 
-1.709109 18.089878 7.270211 87.479637 -17.853716 -37.073023 -82.685381 -47.817397 44.858934 10.204829 7.417073 -53.544719 -61.375637 71.243645 -73.114452 9.200398 24.934096 -2.178264 0.356756 0.043534 -24.467569 39.358213 -6.067001 -106.451762 32.158617 -32.769583 -108.010169 95.354508 -61.176264 -116.290793 29.052864 -36.796392 -4.816031 0.257114 -0.039367 -62.231689 -121.303066 64.254621 -45.995556 -175.257906 71.276810 -171.936481 -150.146824 67.606706 -158.544742 7.230422 -15.118866 3.852563 10.621455 -13.231319 9.929705 0.093678 -0.143860 0.129117 128.778521 65.968358 58.443994 129.417682 70.760613 102.089641 -26.227557 1.336177 -106.606362 20.283092 14.220696 26.616724 -7.484963 -11.126220 1.868889 -0.114239 -0.108992 0.102671 0.070396 0.054378 -0.091648 52.274298 68.080589 80.883863 29.743142 54.541195 137.045173 -34.867868 -32.848013 89.641161 1.566268 9.527651 16.056738 5.345910 -10.232344 35.245609 -0.099756 0.070304 -0.070511 -0.035886 -0.129286 -0.062937 
-1.661943 18.145912 8.278569 86.852940 -17.939717 -37.657494 -83.808326 -48.787571 45.195969 10.159683 6.405348 -53.081669 -55.070985 71.082711 -75.756249 6.839053 18.101476 0.416610 0.373292 0.048690 -26.592314 39.251285 -5.063904 -106.810024 30.954979 -31.561644 -107.002126 94.520384 -59.198626 -113.592824 28.058099 -40.379703 2.131934 -0.118236 -0.146540 -65.904192 -124.358152 66.056759 -49.567802 -176.152599 70.325586 -173.448418 -148.385293 67.658375 -158.154712 7.840181 -14.990669 5.837573 9.964739 -12.516790 8.167122 0.079662 -0.139429 0.141420 126.751585 66.151602 57.624476 140.953078 67.781028 115.045962 -23.347417 -1.594103 -104.590669 29.324080 5.913498 31.041961 -10.110112 -15.748840 3.653969 -0.117192 -0.098440 0.123562 0.064970 0.093578 -0.094339 48.304057 65.046501 74.669618 26.250078 53.481346 138.162891 -36.993662 -32.661665 88.571477 9.408210 13.455017 15.479278 1.441077 -3.606086 44.305126 -0.090413 0.076511 -0.108200 -0.138258 -0.088280 -0.082266 
-1.598199 18.012712 9.249242 86.298606 -17.854728 -38.059136 -84.711808 -49.737722 45.042015 10.063693 5.991039 -51.855951 -52.516161 70.130321 -76.107609 7.244703 10.666152 2.693043 0.494157 0.154278 -26.959964 37.844008 -3.430189 -105.609211 30.714776 -30.539332 -107.775430 93.214335 -55.232598 -109.115766 24.114792 -46.858897 7.801747 -0.362573 -0.180977 -68.046775 -124.610055 67.115952 -49.870601 -174.573175 68.888793 -172.859246 -146.981033 68.107124 -157.503881 11.631337 -13.808365 6.307694 5.036581 -14.232409 7.876359 0.062286 -0.184853 0.126115 126.106603 65.849231 55.783515 146.549493 64.979394 119.784808 -18.334108 -1.992595 -101.155652 33.557775 -1.810606 30.137218 -8.346833 -19.913580 7.899080 -0.100363 -0.149956 0.125303 0.106873 0.071241 -0.088882 45.942262 63.436802 70.837773 25.403772 51.473173 140.547799 -35.787361 -34.658081 86.122413 16.678615 13.066856 15.291170 -1.808231 0.650392 50.531142 -0.106504 0.108130 -0.128503 -0.076014 -0.102857 -0.089106 
-1.511249 17.693932 10.187871 86.268681 -17.522955 -37.461237 -84.746684 -51.589883 44.196330 8.500281 6.744001 -51.246337 -52.401694 68.378209 -73.595597 3.200877 6.739150 1.458624 0.648900 0.110235 -26.045548 35.941687 -1.951491 -105.829201 31.078333 -31.056276 -107.399544 96.008448 -50.891867 -107.177966 18.682132 -49.837213 13.701186 -0.612881 -0.250330 -69.091969 -126.205506 68.690663 -51.646551 -177.834355 69.979564 -175.662730 -145.579522 68.106370 -155.184141 12.385627 -12.349057 6.455521 4.711763 -11.746660 8.106188 0.130085 -0.064616 0.051500 128.197234 65.590297 55.090121 147.887475 63.625367 122.063395 -15.527138 -0.464098 -98.032086 32.441083 -5.006616 23.301385 -6.468126 -23.429661 12.543868 -0.089978 -0.088330 0.059670 0.055273 0.088518 -0.137752 42.946433 63.156254 67.160654 27.528613 48.769845 143.545107 -32.551272 -37.237962 84.123021 22.348449 8.046323 20.276214 -6.607716 8.365355 47.319207 -0.076827 0.120511 -0.121906 -0.086678 -0.096736 -0.079498 
-1.437422 17.189140 11.112918 85.902404 -17.160854 -36.672556 -84.535733 -51.998104 43.869051 8.403700 6.864269 -50.764429 -60.646066 67.650267 -76.556141 1.069194 5.709950 -1.214949 0.800510 0.110695 -26.808129 35.075521 -2.524568 -105.602326 32.819777 -31.097079 -106.648643 98.568757 -47.164319 -104.944268 16.766175 -51.074189 14.037403 -1.093429 -0.310942 -69.065265 -125.491096 69.158396 -50.648104 -178.270832 70.386249 -176.103799 -145.272526 68.080618 -155.217526 12.568498 -7.509478 6.167498 5.954425 -11.303356 6.168381 0.098422 -0.060859 0.132621 125.972004 66.424452 51.000596 146.211098 62.155712 120.186532 -17.555169 4.115857 -95.968640 28.421459 -0.570301 27.095415 -2.445902 -25.756561 10.840452 -0.086471 -0.104760 0.095707 0.133216 0.082803 -0.082163 40.843501 62.725986 65.057859 32.275886 46.090018 148.216930 -26.629338 -41.479180 81.718060 22.046043 7.681854 18.405704 -13.554235 12.608078 48.785039 -0.087277 0.066098 -0.083920 -0.077656 -0.064590 -0.111662 
-1.396329 16.539555 12.014768 85.440570 -16.886377 -35.742489 -83.962579 -52.277310 44.415859 6.819791 7.254735 -51.297870 -66.735745 67.220465 -76.523617 -0.045494 2.889128 -4.939403 0.612038 0.074768 -27.014331 33.677221 -3.645032 -104.708055 37.377009 -31.776754 -107.339711 100.060637 -42.720516 -99.454602 18.122304 -49.605861 10.056848 -1.413145 -0.360524 -67.554695 -122.066543 68.937165 -47.425130 179.685360 71.462002 -176.870997 -143.617936 67.358307 -154.221523 11.267795 -1.991516 6.166507 10.260230 -13.150883 5.879124 0.081367 -0.104834 0.033249 124.747687 65.561851 47.072497 143.846756 61.824932 117.943062 -17.492301 8.936987 -93.527630 25.672112 1.866673 28.350789 -1.558445 -22.214682 11.091950 -0.123334 -0.101353 0.103478 0.080857 0.063504 -0.056635 42.813091 62.653128 67.111727 36.463199 42.128249 151.751157 -21.891368 -46.733999 80.140703 20.611487 6.999776 17.328990 -14.328226 24.955484 49.856599 -0.049694 0.096166 -0.029316 -0.141811 -0.031762 -0.083556 
-1.368449 15.900863 12.858347 84.234443 -16.196379 -34.907622 -84.260015 -52.497480 47.269614 4.451288 7.324883 -52.456533 -67.027914 67.069206 -70.256479 0.455772 -1.282458 -10.663385 0.081320 -0.026688 -27.149640 32.828840 -6.068108 -103.113110 43.016508 -32.603313 -108.194620 100.238947 -38.453246 -94.267397 21.211190 -47.702181 5.136904 -1.590478 -0.331683 -64.773266 -119.290270 68.627393 -44.450692 176.151523 71.012298 178.607745 -143.097099 67.768841 -153.494404 11.880175 1.368858 8.352461 14.976321 -16.509377 4.215335 0.089301 -0.066184 0.059657 124.287506 65.289600 43.876964 145.373124 62.659649 120.089252 -18.425694 13.605070 -91.505117 22.784088 10.351901 27.832560 -3.362635 -19.892236 11.051846 -0.080277 -0.065025 0.061379 0.042075 0.043964 -0.104281 44.307762 62.096391 70.454073 38.344173 39.233036 152.862545 -21.559126 -51.872774 82.492828 20.204714 11.397671 13.412291 -14.926684 30.119133 42.891134 -0.133822 0.113802 -0.072252 -0.044694 -0.091143 -0.058965 
-1.338065 15.464079 13.637190 83.882375 -15.559671 -34.786531 -84.084108 -50.861568 49.256561 3.954883 5.582711 -54.466439 -68.881407 68.979072 -64.505370 0.209012 -5.857834 -16.731153 -0.557133 -0.043038 -26.705233 33.139627 -7.029853 -101.967960 47.229561 -33.832863 -107.395845 100.051559 -34.149546 -88.223387 16.964881 -45.797721 0.982572 -1.540899 -0.228375 -59.999646 -114.970591 67.971750 -38.287407 177.755690 70.001063 -179.855110 -139.899956 68.440683 -150.692017 13.912263 7.564779 11.187512 20.304377 -18.234878 1.306151 0.052588 -0.103697 0.087890 124.623237 64.934601 40.643908 149.903864 63.817010 124.197301 -20.637580 14.496695 -90.667229 19.851616 19.297604 30.557334 -2.509117 -18.582827 7.337512 -0.058548 -0.045538 0.067085 0.073491 0.063076 -0.049130 45.437766 62.159329 73.888962 40.482445 38.785011 154.680647 -20.729147 -51.713416 84.083149 21.787121 16.859144 14.048461 -8.456193 29.800572 20.834155 -0.050968 0.066113 -0.064723 -0.077638 -0.065427 -0.063170 
-1.290449 15.285088 14.386157 84.075997 -15.802432 -34.377176 -82.157017 -50.009525 49.760741 2.017463 4.669293 -57.713945 -64.975697 69.800722 -52.428448 -0.854598 -6.206938 -19.717310 -1.012247 -0.133009 -26.272243 33.707433 -7.728661 -102.418500 52.250817 -37.453280 -105.373721 101.235729 -29.836596 -82.795049 16.953870 -40.934687 -8.255764 -1.461549 -0.124239 -55.678328 -111.857869 66.148658 -34.120924 -179.380070 70.316439 -177.624419 -142.923300 68.007542 -154.662656 13.819321 9.892417 10.930056 22.160609 -9.640776 3.379589 0.098984 -0.025652 0.038531 123.361969 64.222087 36.643084 157.069222 65.756106 130.460011 -24.404157 13.746829 -92.135981 16.292705 17.818551 19.600237 -2.862185 -17.449388 9.859672 -0.134928 -0.100320 0.073170 0.021969 0.072034 -0.075427 46.993876 63.579725 75.822556 46.267276 37.399498 157.751706 -17.792545 -46.542187 84.997846 21.443374 15.434193 11.458906 10.991644 28.627588 19.733221 -0.078238 0.055882 -0.008876 -0.019477 -0.100623 -0.040851 
-1.242680 15.313373 15.128966 84.458843 -15.356966 -34.938935 -82.238691 -47.257920 50.876249 1.952560 2.557101 -59.501011 -66.418433 70.269217 -48.234054 -4.063197 -3.716547 -21.995310 -1.291698 -0.158387 -26.041522 34.183423 -9.852654 -102.152419 59.246763 -41.960829 -104.161813 101.472960 -26.224938 -76.354412 15.676440 -39.492798 -15.627350 -1.288879 -0.016558 -50.486461 -109.834501 64.843451 -31.319782 -175.352767 70.302962 -175.134039 -145.365600 68.025961 -157.835728 13.037674 12.174689 10.058511 23.575271 -5.879596 1.078337 0.042855 -0.101762 0.136263 123.010550 64.079082 34.183559 166.158776 69.161194 137.777289 -25.803148 14.882052 -94.180406 13.937951 18.036687 20.700173 -7.856999 -19.323379 8.569444 -0.038227 -0.052270 0.094569 0.096903 0.026284 -0.068574 46.320857 65.439856 75.883879 52.298898 36.051157 161.552347 -14.393426 -41.292403 84.998739 23.951713 12.632159 14.245849 9.889256 31.878102 -18.360114 -0.061257 0.068975 -0.062797 -0.084710 -0.023371 -0.093812 
